<svg width="85" height="33" viewBox="0 0 85 33" fill="none" xmlns="http://www.w3.org/2000/svg">
<path d="M81.8298 30.178H13.6472C7.76317 30.178 2.91185 25.4641 2.91185 19.6901V15.2018C2.86382 9.40526 7.69112 4.66881 13.6472 4.66881H81.8298C83.607 4.66881 84.9999 6.06719 84.9999 7.78133V27.0654C84.9999 28.7796 83.607 30.178 81.8298 30.178Z" fill="#7BC144"/>
<path d="M42.8032 7.23999H42.467C40.1134 7.2851 38.8646 8.18728 38.5764 9.94654L38.4323 11.0743C38.3362 11.8862 38.4803 12.4727 38.9126 12.8786C39.3929 13.42 40.3055 13.7808 41.6504 13.8259H41.9867C44.2923 13.8259 45.5411 12.9238 45.8293 11.2547V11.1194L45.9734 9.99165C46.0695 9.17969 45.9254 8.54816 45.4931 8.09707C45.0127 7.64597 44.1482 7.2851 42.8032 7.23999ZM43.908 11.0743C43.86 11.5254 43.7159 11.8862 43.4757 12.1569C43.1875 12.5178 42.7552 12.7433 42.0827 12.7433H41.7465C41.1221 12.7433 40.6898 12.5629 40.4977 12.202C40.3536 11.9313 40.3536 11.6156 40.4016 11.1194L40.5457 10.0819C40.6418 9.54056 40.8339 9.08947 41.1221 8.81881C41.4103 8.54816 41.8426 8.41283 42.3709 8.41283H42.7072C43.0914 8.41283 43.5237 8.45794 43.8119 8.81881C44.0521 9.08947 44.1001 9.49545 44.0041 10.0368L43.908 11.0743Z" fill="white"/>
<path d="M61.8723 7.23999H61.5361C59.1825 7.2851 57.9336 8.18728 57.6454 9.94654L57.5013 11.0743C57.4053 11.8862 57.5494 12.4727 57.9817 12.8786C58.51 13.42 59.3746 13.7808 60.7195 13.8259H61.0558C63.3613 13.8259 64.6102 12.9238 64.8984 11.2547V11.1194L65.0425 9.99165C65.1386 9.17969 64.9945 8.54816 64.5622 8.09707C64.0578 7.64597 63.1452 7.2851 61.8723 7.23999ZM62.9291 11.0743C62.881 11.5254 62.7369 11.8862 62.4968 12.1569C62.2086 12.5178 61.7763 12.7433 61.1518 12.7433H60.8156C60.1912 12.7433 59.7589 12.5629 59.5668 12.202C59.4227 11.9313 59.4227 11.6156 59.4707 11.1194L59.6148 10.0819C59.7109 9.54056 59.903 9.08947 60.1912 8.81881C60.4794 8.54816 60.9117 8.41283 61.44 8.41283H61.7763C62.1605 8.41283 62.5928 8.45794 62.881 8.81881C63.1212 9.08947 63.1692 9.49545 63.0732 10.0368L62.9291 11.0743Z" fill="white"/>
<path d="M82.2143 8.14217C81.6859 7.60086 80.8213 7.23999 79.5244 7.23999H79.1882C76.8346 7.2851 75.5857 8.18728 75.2975 9.94654L75.1534 11.0743C75.0574 11.8862 75.2015 12.4727 75.6338 12.8786C76.1141 13.42 77.0267 13.7808 78.3716 13.8259H78.7079C81.0135 13.8259 82.2623 12.9238 82.5505 11.2547V11.1194L82.6946 9.99165C82.7907 9.2248 82.6466 8.59327 82.2143 8.14217ZM80.5812 11.0743C80.5331 11.5254 80.389 11.8862 80.1489 12.1569C79.8607 12.5178 79.4284 12.7433 78.8039 12.7433H78.4677C77.8433 12.7433 77.411 12.5629 77.2189 12.202C77.0748 11.9313 77.0748 11.6156 77.1228 11.1194L77.2669 10.0819C77.363 9.54056 77.5551 9.08947 77.8433 8.81881C78.1315 8.54816 78.5638 8.41283 79.0921 8.41283H79.4284C79.7646 8.41283 80.2449 8.45794 80.5331 8.81881C80.7733 9.08947 80.8213 9.49545 80.7253 10.0368L80.5812 11.0743Z" fill="white"/>
<path d="M67.8044 9.22479C67.8525 9.22479 67.9485 9.22479 67.9966 9.22479C68.2367 9.2699 68.3808 9.36012 68.4769 9.45034C68.621 9.63077 68.7171 9.85632 68.669 10.127L68.4289 12.0667L68.3808 12.5629V12.608H69.5336C69.5817 12.608 69.7257 12.608 69.8218 12.608C70.3502 12.5629 71.1667 12.3824 71.4069 11.7509V11.7058C71.4549 11.5253 71.503 11.3449 71.551 11.1645L71.6471 10.4878L71.6951 10.1721C71.7431 9.90143 71.7431 9.67588 71.6951 9.45034C71.599 8.81881 70.8305 8.63838 70.3502 8.59327C70.2541 8.59327 70.158 8.59327 70.062 8.59327H68.9092H68.0926H67.9966C67.7084 8.59327 67.5643 8.54816 67.4682 8.45794C67.228 8.27751 67.0839 8.00685 67.0839 7.64598V7.46555H67.228H67.3241H69.7738C69.7738 7.46555 69.7738 7.46555 69.8218 7.46555H70.11C71.599 7.46555 72.6077 7.78131 73.1361 8.32262C73.5684 8.7737 73.7125 9.36012 73.6164 10.0819L73.5684 10.4878L73.4723 11.1194C73.4723 11.2096 73.4243 11.3449 73.4243 11.4351C73.3762 11.8411 73.2321 12.202 73.04 12.4726C72.8479 12.7884 72.5597 13.059 72.2235 13.2395C72.1274 13.2846 71.9833 13.3748 71.8872 13.4199C71.6471 13.5552 71.3108 13.6455 70.9746 13.6906C70.8785 13.6906 70.6864 13.7357 70.4943 13.7357C70.2541 13.7357 69.9659 13.7808 69.6777 13.7808H67.6123H67.3241C66.7958 13.7808 66.5076 13.6906 66.3635 13.5101C66.3154 13.465 66.3154 13.465 66.2674 13.4199C66.2194 13.3297 66.1713 13.1944 66.2194 13.059L66.4595 11.2998L66.7477 9.2699L67.8044 9.22479Z" fill="white"/>
<path d="M37.2555 12.5854H37.0153H35.19H34.5656C34.1814 12.5854 33.8932 12.5403 33.701 12.4952C33.4609 12.4501 33.3168 12.3598 33.1727 12.2245C33.0766 12.1343 33.0286 11.999 32.9805 11.8636V11.8185C32.9805 11.7734 32.9805 11.6832 32.9325 11.6381C32.9325 11.4577 32.9325 11.2772 32.9805 11.0968L33.1246 10.1495C33.1246 10.0142 33.1727 9.92396 33.1727 9.83374C33.1727 9.78864 33.1727 9.78864 33.2207 9.74353C33.2687 9.65331 33.2687 9.56309 33.3168 9.51798V9.47287C33.3648 9.42776 33.3648 9.33755 33.4128 9.29244C33.4609 9.24733 33.4609 9.20222 33.5089 9.15711C33.653 8.97668 33.8932 8.84135 34.1333 8.75113C34.4215 8.66091 34.7578 8.61581 35.19 8.61581H36.6791C36.9673 8.61581 37.1594 8.57069 37.2555 8.48048C37.3996 8.39026 37.4956 8.30004 37.6397 8.16472C37.6397 8.16472 37.6878 8.11961 37.6878 8.0745C37.7838 7.93917 37.8319 7.80384 37.8799 7.66852L37.9279 7.48808H35.2861H35.2381H35.094H34.9018C34.5656 7.48808 34.2774 7.53319 33.9892 7.5783C32.3081 7.80384 31.3954 8.66091 31.2033 10.1495L31.0592 11.2772C30.9631 12.0441 31.1072 12.6305 31.4915 13.0365C31.9238 13.5327 32.7404 13.8484 33.8932 13.8935H35.9586C36.2468 13.8935 36.4869 13.8484 36.631 13.8033C36.8232 13.7131 36.9673 13.5327 37.0633 13.3522C37.1114 13.3071 37.1114 13.262 37.1594 13.2169C37.1114 13.0365 37.2074 12.8109 37.2555 12.5854Z" fill="white"/>
<path d="M49.3598 12.7208V12.811C49.3118 13.0816 49.1677 13.3072 48.9756 13.4876C48.8315 13.6229 48.5913 13.7583 48.2551 13.7583H47.2464L47.3425 13.0365L47.3905 12.7659L48.063 7.46555H48.2071H48.8795C49.4079 7.46555 49.7441 7.60087 49.9362 7.82642L51.7615 10.5781L54.3553 7.82642C54.5954 7.60087 54.9317 7.46555 55.46 7.46555H56.1325H56.3246L55.6521 12.7208V12.811C55.6041 13.0816 55.46 13.3072 55.2679 13.4876C55.1238 13.6229 54.8836 13.7132 54.5474 13.7132H53.5867L54.0671 10.0142L52.0017 12.4501C51.9536 12.4952 51.7615 12.7208 51.5213 12.7208C51.2812 12.7208 51.1371 12.4952 51.089 12.405L49.7441 10.0142L49.3598 12.7208Z" fill="white"/>
<path d="M26.7603 16.1039H81.3977C82.4064 16.1039 83.2229 16.8708 83.2229 17.8181V27.1782C83.2229 28.1255 82.4064 28.8923 81.3977 28.8923H17.1778" fill="white"/>
<path d="M33.5088 26.5466C32.452 26.5466 31.7315 26.2308 31.0591 25.6444L31.9237 24.6971C32.404 25.1933 33.1245 25.4188 33.5088 25.4188C34.2293 25.4188 34.6616 25.1482 34.7576 24.6069C34.9017 23.7949 33.6048 23.3889 32.9804 23.0732C32.0678 22.6221 31.3473 22.0357 31.3473 20.9982C31.3473 19.8705 32.3079 19.0134 33.797 19.0134C34.8537 19.0134 35.5261 19.4645 35.9104 19.9156L35.1419 20.8629C34.7576 20.4118 34.2773 20.2313 33.797 20.2313C33.1245 20.2313 32.7402 20.5922 32.7883 20.9982C32.8363 21.765 34.1332 22.171 34.7576 22.4868C35.7663 23.0281 36.5829 23.9302 36.1506 25.1031C35.7183 26.0504 34.6616 26.5466 33.5088 26.5466Z" fill="#4B4A4B"/>
<path d="M44.3883 26.4565H39.6091V19.0811H44.4364L44.1002 20.254H41.026V22.0583H44.0041V23.2312H41.026V25.2611H44.6285L44.3883 26.4565Z" fill="#4B4A4B"/>
<path d="M50.3203 26.5467C49.1195 26.5467 47.8226 26.0054 47.8226 24.7423V21.0208C47.8226 19.8029 49.0715 18.9909 50.3684 18.9909C51.329 18.9909 52.0976 19.3518 52.4818 19.7578L51.9054 20.8404C51.4251 20.3893 50.7526 20.2089 50.3684 20.2089C49.7439 20.2089 49.2156 20.5697 49.2156 21.2915V24.4942C49.2156 25.0806 49.888 25.3964 50.4164 25.3964C50.8007 25.3964 51.5212 25.2611 52.2897 24.7649L52.6259 25.9377C51.9054 26.3212 51.329 26.5467 50.3203 26.5467Z" fill="#4B4A4B"/>
<path d="M60.9596 24.6972C60.9596 25.9603 59.5666 26.5467 58.3658 26.5467C57.165 26.5467 55.772 25.9603 55.772 24.6972V19.0811H57.213V24.5619C57.213 25.1483 57.8855 25.419 58.4138 25.419C58.9422 25.419 59.5666 25.1934 59.5666 24.5619V19.0811H60.9596V24.6972Z" fill="#4B4A4B"/>
<path d="M68.3806 26.4565L66.4593 23.5695H65.7388V26.4565H64.4419V19.1263H66.8435C68.0444 19.1263 69.2932 19.7127 69.2932 21.0208V21.6073C69.2932 22.329 68.8609 23.2763 67.8522 23.4567L69.9657 26.479C69.9657 26.4565 68.3806 26.4565 68.3806 26.4565ZM67.9483 21.0434C67.9483 20.4119 67.4199 20.1863 66.6994 20.1863H65.7388V22.4418H66.6994C67.3719 22.4418 67.9483 22.1711 67.9483 21.4945V21.0434Z" fill="#4B4A4B"/>
<path d="M77.771 26.4565H72.9918V19.0811H77.8191L77.4828 20.254H74.4087V22.0583H77.3868V23.2312H74.4087V25.2611H78.0112L77.771 26.4565Z" fill="#4B4A4B"/>
<path d="M29.7383 6.96936L14.9922 0L0.198085 6.96936C-2.01142 28.4638 14.9922 32.2079 14.9922 32.2079C14.9922 32.2079 31.9238 28.4638 29.7383 6.96936Z" fill="#D2D3D3"/>
<path d="M27.865 8.14218L14.9922 2.07501L2.11936 8.14218C0.198049 26.8399 14.9922 30.0878 14.9922 30.0878C14.9922 30.0878 29.7863 26.8625 27.865 8.14218Z" fill="#E6E6E5"/>
<path d="M14.8961 30.0878C14.8961 30.0878 0.101981 26.7948 2.02329 8.09707L14.8961 2.07501V30.0878Z" fill="#F3F3F3"/>
<path d="M11.822 17.0963C11.4858 17.0963 11.1976 16.8257 11.1976 16.5099V10.7585C11.1976 9.17968 12.8307 7.96173 14.8481 7.96173H15.0402C17.0576 7.96173 18.5946 9.17968 18.5946 10.7585V12.9689C18.5946 13.2846 18.3064 13.5553 17.9702 13.5553C17.634 13.5553 17.3458 13.2846 17.3458 12.9689V10.7585C17.3458 9.85632 16.3851 9.13457 15.0402 9.13457H14.8481C13.5031 9.13457 12.4464 9.90143 12.4464 10.7585V16.555C12.4464 16.8708 12.1582 17.0963 11.822 17.0963Z" fill="#7BC144"/>
<path d="M19.8195 20.863C19.8195 21.5847 19.195 22.2162 18.2344 22.2162H11.5338C10.6212 22.2162 9.85266 21.5847 9.85266 20.863V15.5626C9.85266 14.8409 10.6212 14.2545 11.5338 14.2545H18.2344C19.147 14.2545 19.8195 14.8409 19.8195 15.5626V20.863Z" fill="url(#paint0_radial)"/>
<path d="M15.8809 17.1866C15.8809 16.7355 15.4966 16.3746 15.0163 16.3746H14.9683C14.488 16.3746 14.1037 16.7355 14.1037 17.1866V17.2317C14.1037 17.6828 14.488 18.0436 14.9683 18.0436H15.0163C15.5207 18.0436 15.8809 17.6377 15.8809 17.1866Z" fill="#F3F3F3"/>
<path d="M15.4245 19.8706C15.4245 20.0961 15.2324 20.2314 15.0403 20.2314C14.8001 20.2314 14.656 20.051 14.656 19.8706V17.7053C14.656 17.4798 14.8481 17.3444 15.0403 17.3444C15.2804 17.3444 15.4245 17.5249 15.4245 17.7053V19.8706Z" fill="#F3F3F3"/>
<defs>
<radialGradient id="paint0_radial" cx="0" cy="0" r="1" gradientUnits="userSpaceOnUse" gradientTransform="translate(14.8252 18.2401) scale(4.63156 4.34966)">
<stop offset="1.99493e-07" stop-color="#7BC144"/>
<stop offset="1" stop-color="#53A646"/>
</radialGradient>
</defs>
</svg>
