<svg width="34" height="34" viewBox="0 0 34 34" fill="none" xmlns="http://www.w3.org/2000/svg">
<circle cx="17" cy="17" r="17" fill="#EEEFF5"/>
<path d="M17.8001 14.9894C16.3619 14.3462 15.9461 14.0011 15.9461 13.4516C15.9461 12.8384 16.4053 12.4866 17.2062 12.4866C17.801 12.4866 18.3375 12.6162 18.8466 12.8826C19.1032 13.0171 19.4017 13.0316 19.6683 12.9212C19.9351 12.8118 20.1454 12.5883 20.2473 12.3068L20.4443 11.762C20.6317 11.2436 20.4103 10.6606 19.9349 10.4208C19.4083 10.155 18.8539 9.98354 18.2444 9.89934V9.06705C18.2444 8.47784 17.7899 8 17.2296 8H16.799C16.2385 8 15.7843 8.47784 15.7843 9.06705V10.0433C14.1257 10.5468 13.0676 11.9434 13.0676 13.6625C13.0676 16.2151 15.3657 17.1628 16.4599 17.6139C17.3138 17.9775 18.1038 18.4264 18.1038 19.242C18.1038 20.1085 17.2975 20.4158 16.6071 20.4158C15.9747 20.4158 15.2734 20.2274 14.6832 19.8991C14.4231 19.7542 14.1159 19.7356 13.8413 19.8475C13.5668 19.9595 13.3524 20.1911 13.2532 20.4825L13.0594 21.0513C12.8938 21.5385 13.084 22.0804 13.5109 22.3372C14.1019 22.6927 14.879 22.9462 15.6791 23.0481V23.933C15.6791 24.5222 16.1335 25 16.6938 25H17.1224C17.6827 25 18.1372 24.5222 18.1372 23.933V22.8836C19.8594 22.3745 21 20.8789 21 19.0901C20.998 16.6873 19.3746 15.6657 17.8001 14.9894Z" fill="#727AAC"/>
</svg>
