<svg width="34" height="34" viewBox="0 0 34 34" fill="none" xmlns="http://www.w3.org/2000/svg">
<circle cx="17" cy="17" r="17" fill="#EEEFF5"/>
<path d="M16.9591 25C18.0026 25 18.8721 24.9001 19.4552 24.7102C19.9054 24.5703 20.1202 24.3004 20.1202 23.9107C20.1202 23.451 19.7724 23.1312 19.2916 23.1312C18.8926 23.1312 18.1867 23.331 17.0921 23.331H16.9898C13.3171 23.331 10.9847 20.9725 10.9847 17.2648V16.9151C10.9847 13.1574 13.4297 10.6889 17.1637 10.6889H17.2558C20.6419 10.6889 23.0665 12.9076 23.0665 16.0056V16.2755C23.0665 18.1943 22.4629 19.4535 21.5422 19.4535C21 19.4535 20.6215 19.0537 20.6215 18.4941V14.5865C20.6215 13.9469 20.1918 13.5072 19.5678 13.5072C18.9233 13.5072 18.4834 13.9469 18.4834 14.5865V14.7764H18.4118C18.156 13.8969 17.2967 13.3373 16.1816 13.3373C14.3811 13.3373 13.2353 14.5865 13.2353 16.5353V17.7545C13.2353 19.7833 14.3606 21.0325 16.1816 21.0325C17.3683 21.0325 18.3095 20.4528 18.5652 19.5634H18.6573C18.913 20.4528 19.977 21.0425 21.3171 21.0425C23.5371 21.0425 25 19.2036 25 16.4154V15.9257C25 11.8782 21.7775 9 17.2455 9H17.1637C12.2839 9 9 12.158 9 16.8451V17.3248C9 22.0119 12.0691 25 16.8568 25H16.9591ZM15.5473 17.4147V16.8951C15.5473 15.7258 16.0179 15.0862 16.8875 15.0862C17.7161 15.0862 18.2174 15.6958 18.2174 16.7052V17.5447C18.2174 18.664 17.7673 19.2336 16.9079 19.2336C15.9974 19.2336 15.5473 18.634 15.5473 17.4147Z" fill="#727AAC"/>
</svg>
