<svg width="204" height="25" viewBox="0 0 204 25" fill="none" xmlns="http://www.w3.org/2000/svg">
<path d="M0 13.9998L1.456 0.799805H3.68L7.096 9.7998L10.512 0.799805H12.736L14.192 13.9998H12.104L11.048 4.59181L7.768 13.5038H6.432L3.144 4.59181L2.096 13.9998H0Z" fill="white"/>
<path d="M16.929 18.1598L19.345 13.2718L15.457 5.80781H17.729L20.505 11.3278L22.961 5.80781H25.233L19.201 18.1598H16.929Z" fill="white"/>
<path d="M28.616 14V3.888H25.736V0.8H35.016V3.888H32.136V14H28.616Z" fill="#FF6682"/>
<path d="M38.3153 14.256C37.5687 14.256 36.8887 14.0693 36.2753 13.696C35.662 13.3173 35.174 12.8 34.8113 12.144C34.4487 11.4827 34.2673 10.7307 34.2673 9.888C34.2673 9.072 34.438 8.33867 34.7793 7.688C35.126 7.032 35.6033 6.512 36.2113 6.128C36.8193 5.744 37.5207 5.552 38.3153 5.552C38.7847 5.552 39.2353 5.62133 39.6673 5.76C40.1047 5.89333 40.486 6.08533 40.8113 6.336V5.808H44.1393V14H40.8113V13.36C40.422 13.6587 40.0193 13.8827 39.6033 14.032C39.1927 14.1813 38.7633 14.256 38.3153 14.256ZM39.3393 11.44C39.638 11.44 39.902 11.3733 40.1313 11.24C40.366 11.1067 40.5473 10.9253 40.6753 10.696C40.8087 10.4613 40.8753 10.1973 40.8753 9.904C40.8753 9.60533 40.8087 9.34133 40.6753 9.112C40.542 8.88267 40.3607 8.70133 40.1313 8.568C39.902 8.43467 39.638 8.368 39.3393 8.368C39.046 8.368 38.782 8.43467 38.5473 8.568C38.3127 8.70133 38.126 8.88533 37.9873 9.12C37.854 9.34933 37.7873 9.61067 37.7873 9.904C37.7873 10.1973 37.854 10.4613 37.9873 10.696C38.1207 10.9253 38.3047 11.1067 38.5393 11.24C38.774 11.3733 39.0407 11.44 39.3393 11.44Z" fill="#FF6682"/>
<path d="M44.9461 14L48.4661 9.68L45.4581 5.808H49.3301L50.4661 7.36L51.6021 5.808H55.4741L52.4661 9.68L55.9861 14H51.9861L50.4661 12.016L48.9461 14H44.9461Z" fill="#FF6682"/>
<path d="M57.0951 14V0.8H62.3111C63.2391 0.8 64.0471 0.965334 64.7351 1.296C65.4231 1.62133 65.9564 2.096 66.3351 2.72C66.7138 3.33867 66.9031 4.09067 66.9031 4.976C66.9031 5.60533 66.8044 6.18133 66.6071 6.704C66.4098 7.22133 66.1218 7.67467 65.7431 8.064C65.3698 8.448 64.9084 8.75733 64.3591 8.992L68.6311 14H64.1671L60.6231 9.424H60.6151V14H57.0951ZM60.6151 6.512H61.1591C61.6071 6.512 61.9804 6.45867 62.2791 6.352C62.5831 6.24533 62.8098 6.08533 62.9591 5.872C63.1138 5.65333 63.1911 5.38667 63.1911 5.072C63.1911 4.58667 63.0178 4.22133 62.6711 3.976C62.3298 3.72533 61.8258 3.6 61.1591 3.6H60.6151V6.512Z" fill="#FF6682"/>
<path d="M73.0723 14.256C72.1657 14.256 71.3497 14.064 70.6243 13.68C69.9043 13.296 69.3337 12.776 68.9123 12.12C68.491 11.4587 68.2803 10.7147 68.2803 9.888C68.2803 9.27467 68.4003 8.70667 68.6403 8.184C68.8803 7.656 69.2137 7.19467 69.6403 6.8C70.067 6.40533 70.5657 6.09867 71.1363 5.88C71.7123 5.66133 72.3363 5.552 73.0083 5.552C73.8617 5.552 74.6083 5.73067 75.2483 6.088C75.8937 6.44 76.3977 6.93333 76.7603 7.568C77.123 8.19733 77.3043 8.93067 77.3043 9.768C77.3043 9.83733 77.3017 9.904 77.2963 9.968C77.2963 10.0267 77.2883 10.16 77.2723 10.368H71.7203C71.7203 10.6293 71.7817 10.856 71.9043 11.048C72.027 11.2347 72.203 11.3787 72.4323 11.48C72.667 11.5813 72.9443 11.632 73.2643 11.632C73.563 11.632 73.819 11.5787 74.0323 11.472C74.251 11.3653 74.5043 11.1733 74.7923 10.896L77.1763 12.08C76.7923 12.7573 76.235 13.2907 75.5043 13.68C74.779 14.064 73.9683 14.256 73.0723 14.256ZM71.8163 8.8H74.0563C74.0243 8.58133 73.9603 8.40267 73.8643 8.264C73.7683 8.12 73.643 8.01333 73.4883 7.944C73.3337 7.87467 73.1443 7.84 72.9203 7.84C72.6857 7.84 72.4857 7.87733 72.3203 7.952C72.1603 8.02667 72.0377 8.136 71.9523 8.28C71.867 8.41867 71.8217 8.592 71.8163 8.8Z" fill="#FF6682"/>
<path d="M79.5836 14V8.336H78.3036V5.808H79.5836V4.384C79.5836 3.50933 79.7249 2.744 80.0076 2.088C80.2956 1.42667 80.7009 0.914667 81.2236 0.552C81.7516 0.184 82.3783 0 83.1036 0C83.5623 0 84.0209 0.0746667 84.4796 0.224C84.9383 0.368 85.3276 0.565334 85.6476 0.816L84.4956 3.136C84.2396 3.008 83.9729 2.944 83.6956 2.944C83.4343 2.944 83.2476 3.01333 83.1356 3.152C83.0289 3.28533 82.9649 3.46933 82.9436 3.704C82.9223 3.93867 82.9116 4.20267 82.9116 4.496V5.808H84.7356V8.336H82.9116V14H79.5836Z" fill="#FF6682"/>
<path d="M90.6933 14.256C89.024 14.256 87.816 13.9493 87.0693 13.336C86.328 12.7227 85.9573 11.7333 85.9573 10.368V5.808H89.2853V9.536C89.2853 10.288 89.3893 10.816 89.5973 11.12C89.8107 11.4187 90.1787 11.568 90.7013 11.568C91.2187 11.568 91.5813 11.4187 91.7893 11.12C91.9973 10.816 92.1013 10.288 92.1013 9.536V5.808H95.4293V10.368C95.4293 11.7333 95.056 12.7227 94.3093 13.336C93.568 13.9493 92.3627 14.256 90.6933 14.256Z" fill="#FF6682"/>
<path d="M97.7206 14V5.808H101.049V6.576C101.427 6.25067 101.854 6 102.329 5.824C102.809 5.64267 103.294 5.552 103.785 5.552C104.409 5.552 104.966 5.69333 105.457 5.976C105.953 6.25867 106.345 6.64267 106.633 7.128C106.921 7.608 107.065 8.15467 107.065 8.768V14H103.737V9.488C103.737 9.07733 103.614 8.74933 103.369 8.504C103.123 8.25333 102.798 8.128 102.393 8.128C102.126 8.128 101.891 8.184 101.689 8.296C101.486 8.408 101.329 8.56533 101.217 8.768C101.105 8.97067 101.049 9.21067 101.049 9.488V14H97.7206Z" fill="#FF6682"/>
<path d="M112.744 14.256C112.019 14.256 111.352 14.072 110.744 13.704C110.136 13.336 109.648 12.824 109.28 12.168C108.917 11.512 108.736 10.7573 108.736 9.904C108.736 9.07733 108.912 8.336 109.264 7.68C109.616 7.024 110.099 6.50667 110.712 6.128C111.331 5.744 112.037 5.552 112.832 5.552C113.301 5.552 113.747 5.62133 114.168 5.76C114.589 5.89333 114.96 6.08533 115.28 6.336V0.240001H118.608V14H115.28V13.36C114.907 13.648 114.504 13.8693 114.072 14.024C113.645 14.1787 113.203 14.256 112.744 14.256ZM113.784 11.44C114.088 11.44 114.357 11.3733 114.592 11.24C114.827 11.1067 115.011 10.9253 115.144 10.696C115.277 10.4667 115.344 10.208 115.344 9.92C115.344 9.62133 115.275 9.35733 115.136 9.128C115.003 8.89333 114.819 8.70933 114.584 8.576C114.355 8.43733 114.093 8.368 113.8 8.368C113.507 8.368 113.243 8.43733 113.008 8.576C112.779 8.70933 112.595 8.89333 112.456 9.128C112.323 9.36267 112.256 9.62933 112.256 9.928C112.256 10.216 112.32 10.4747 112.448 10.704C112.576 10.9333 112.755 11.1147 112.984 11.248C113.219 11.376 113.485 11.44 113.784 11.44Z" fill="#FF6682"/>
<path d="M121.736 13.9998V0.799805H123.832V12.1598H128.872V13.9998H121.736Z" fill="white"/>
<path d="M134.954 14.2558C134.069 14.2558 133.269 14.0718 132.554 13.7038C131.845 13.3358 131.282 12.8238 130.866 12.1678C130.45 11.5118 130.242 10.7571 130.242 9.9038C130.242 9.04514 130.45 8.29047 130.866 7.63981C131.282 6.98381 131.845 6.47181 132.554 6.10381C133.263 5.73581 134.063 5.55181 134.954 5.55181C135.839 5.55181 136.637 5.73581 137.346 6.10381C138.061 6.47181 138.623 6.98381 139.034 7.63981C139.45 8.29047 139.658 9.04514 139.658 9.9038C139.658 10.7571 139.45 11.5118 139.034 12.1678C138.623 12.8238 138.061 13.3358 137.346 13.7038C136.637 14.0718 135.839 14.2558 134.954 14.2558ZM134.954 12.5438C135.455 12.5438 135.903 12.4318 136.298 12.2078C136.698 11.9785 137.013 11.6665 137.242 11.2718C137.471 10.8718 137.586 10.4158 137.586 9.9038C137.586 9.38647 137.471 8.93047 137.242 8.5358C137.013 8.1358 136.698 7.82381 136.298 7.59981C135.903 7.3758 135.455 7.2638 134.954 7.2638C134.458 7.2638 134.01 7.3758 133.61 7.59981C133.21 7.82381 132.895 8.1358 132.666 8.5358C132.437 8.93047 132.322 9.38647 132.322 9.9038C132.322 10.4158 132.437 10.8718 132.666 11.2718C132.895 11.6665 133.21 11.9785 133.61 12.2078C134.01 12.4318 134.458 12.5438 134.954 12.5438Z" fill="white"/>
<path d="M145.441 14.2558C144.683 14.2558 143.995 14.0691 143.377 13.6958C142.763 13.3171 142.275 12.7998 141.913 12.1438C141.555 11.4878 141.377 10.7385 141.377 9.89581C141.377 9.06381 141.55 8.32247 141.897 7.67181C142.249 7.01581 142.731 6.49847 143.345 6.1198C143.958 5.74114 144.657 5.55181 145.441 5.55181C146.081 5.55181 146.67 5.68514 147.209 5.95181C147.747 6.21847 148.174 6.58914 148.489 7.06381V5.80781H150.481V13.9998H148.489V12.6878C148.126 13.1838 147.681 13.5705 147.153 13.8478C146.63 14.1198 146.059 14.2558 145.441 14.2558ZM146.009 12.5518C146.505 12.5518 146.942 12.4398 147.321 12.2158C147.699 11.9865 147.998 11.6718 148.217 11.2718C148.435 10.8718 148.545 10.4158 148.545 9.9038C148.545 9.38647 148.435 8.93047 148.217 8.5358C147.998 8.1358 147.699 7.82381 147.321 7.59981C146.942 7.37047 146.505 7.25581 146.009 7.25581C145.518 7.25581 145.081 7.37047 144.697 7.59981C144.313 7.82381 144.011 8.1358 143.793 8.5358C143.574 8.9358 143.465 9.3918 143.465 9.9038C143.465 10.4158 143.574 10.8718 143.793 11.2718C144.011 11.6718 144.313 11.9865 144.697 12.2158C145.081 12.4398 145.518 12.5518 146.009 12.5518Z" fill="white"/>
<path d="M153.571 13.9998V5.80781H155.563V6.79181C155.845 6.42914 156.221 6.13314 156.691 5.9038C157.165 5.66914 157.707 5.55181 158.315 5.55181C158.944 5.55181 159.493 5.68781 159.963 5.95981C160.437 6.22647 160.805 6.60514 161.067 7.09581C161.328 7.58647 161.459 8.16781 161.459 8.83981V13.9998H159.467V9.25581C159.467 8.57314 159.296 8.04781 158.955 7.67981C158.619 7.30647 158.152 7.11981 157.555 7.11981C157.144 7.11981 156.789 7.20514 156.491 7.3758C156.192 7.54114 155.963 7.76514 155.803 8.04781C155.643 8.32514 155.563 8.63447 155.563 8.97581V13.9998H153.571Z" fill="white"/>
<path d="M166.039 14.2558C165.794 14.2558 165.57 14.1945 165.367 14.0718C165.17 13.9545 165.01 13.7971 164.887 13.5998C164.77 13.3971 164.711 13.1758 164.711 12.9358C164.711 12.6905 164.77 12.4691 164.887 12.2718C165.01 12.0745 165.17 11.9171 165.367 11.7998C165.57 11.6771 165.794 11.6158 166.039 11.6158C166.284 11.6158 166.506 11.6771 166.703 11.7998C166.9 11.9171 167.058 12.0745 167.175 12.2718C167.292 12.4691 167.351 12.6905 167.351 12.9358C167.351 13.1758 167.292 13.3971 167.175 13.5998C167.058 13.7971 166.9 13.9545 166.703 14.0718C166.506 14.1945 166.284 14.2558 166.039 14.2558Z" fill="white"/>
<path d="M174.598 14.2558C173.979 14.2558 173.395 14.1465 172.846 13.9278C172.302 13.7038 171.822 13.3945 171.406 12.9998C170.99 12.6051 170.662 12.1438 170.422 11.6158C170.187 11.0878 170.07 10.5171 170.07 9.9038C170.07 9.3118 170.182 8.75447 170.406 8.23181C170.635 7.70381 170.952 7.23981 171.358 6.83981C171.769 6.43981 172.249 6.12514 172.798 5.89581C173.353 5.66647 173.95 5.55181 174.59 5.55181C175.123 5.55181 175.633 5.62914 176.118 5.7838C176.609 5.93847 177.014 6.14114 177.334 6.39181L176.622 7.73581C176.153 7.37847 175.574 7.19981 174.886 7.19981C174.32 7.19981 173.833 7.32514 173.422 7.57581C173.011 7.82114 172.697 8.15181 172.478 8.56781C172.259 8.97847 172.15 9.4238 172.15 9.9038C172.15 10.4105 172.265 10.8691 172.494 11.2798C172.723 11.6851 173.046 12.0078 173.462 12.2478C173.878 12.4878 174.358 12.6078 174.902 12.6078C175.238 12.6078 175.553 12.5598 175.846 12.4638C176.145 12.3678 176.401 12.2371 176.614 12.0718L177.334 13.4158C177.009 13.6611 176.606 13.8611 176.126 14.0158C175.646 14.1758 175.137 14.2558 174.598 14.2558Z" fill="white"/>
<path d="M183.532 14.2558C182.647 14.2558 181.847 14.0718 181.132 13.7038C180.423 13.3358 179.86 12.8238 179.444 12.1678C179.028 11.5118 178.82 10.7571 178.82 9.9038C178.82 9.04514 179.028 8.29047 179.444 7.63981C179.86 6.98381 180.423 6.47181 181.132 6.10381C181.842 5.73581 182.642 5.55181 183.532 5.55181C184.418 5.55181 185.215 5.73581 185.924 6.10381C186.639 6.47181 187.202 6.98381 187.612 7.63981C188.028 8.29047 188.236 9.04514 188.236 9.9038C188.236 10.7571 188.028 11.5118 187.612 12.1678C187.202 12.8238 186.639 13.3358 185.924 13.7038C185.215 14.0718 184.418 14.2558 183.532 14.2558ZM183.532 12.5438C184.034 12.5438 184.482 12.4318 184.876 12.2078C185.276 11.9785 185.591 11.6665 185.82 11.2718C186.05 10.8718 186.164 10.4158 186.164 9.9038C186.164 9.38647 186.05 8.93047 185.82 8.5358C185.591 8.1358 185.276 7.82381 184.876 7.59981C184.482 7.3758 184.034 7.2638 183.532 7.2638C183.036 7.2638 182.588 7.3758 182.188 7.59981C181.788 7.82381 181.474 8.1358 181.244 8.5358C181.015 8.93047 180.9 9.38647 180.9 9.9038C180.9 10.4158 181.015 10.8718 181.244 11.2718C181.474 11.6665 181.788 11.9785 182.188 12.2078C182.588 12.4318 183.036 12.5438 183.532 12.5438Z" fill="white"/>
<path d="M190.618 13.9998V5.80781H192.61V6.79181C192.988 6.37047 193.386 6.05847 193.802 5.85581C194.223 5.65314 194.684 5.55181 195.186 5.55181C195.831 5.55181 196.404 5.69847 196.906 5.99181C197.412 6.28514 197.77 6.67981 197.978 7.17581C198.346 6.65314 198.764 6.25314 199.234 5.97581C199.703 5.69314 200.247 5.55181 200.866 5.55181C201.452 5.55181 201.972 5.67447 202.426 5.91981C202.884 6.15981 203.244 6.50647 203.506 6.95981C203.772 7.4078 203.906 7.94914 203.906 8.58381V13.9998H201.914V9.12781C201.914 8.51981 201.754 8.0398 201.434 7.68781C201.119 7.33047 200.695 7.1518 200.162 7.1518C199.799 7.1518 199.474 7.22914 199.186 7.38381C198.898 7.53847 198.671 7.7438 198.506 7.9998C198.34 8.25581 198.258 8.53047 198.258 8.8238V13.9998H196.266V9.04781C196.266 8.47181 196.111 8.01314 195.802 7.67181C195.492 7.32514 195.071 7.1518 194.538 7.1518C194.17 7.1518 193.839 7.22914 193.546 7.38381C193.258 7.53847 193.028 7.7438 192.858 7.9998C192.692 8.25047 192.61 8.52247 192.61 8.81581V13.9998H190.618Z" fill="white"/>
</svg>
