<svg width="204" height="19" viewBox="0 0 204 19" fill="none" xmlns="http://www.w3.org/2000/svg">
<path d="M0 14L1.456 0.800049H3.68L7.096 9.80005L10.512 0.800049H12.736L14.192 14H12.104L11.048 4.59205L7.768 13.504H6.432L3.144 4.59205L2.096 14H0Z" fill="#212121"/>
<path d="M16.929 18.16L19.345 13.272L15.457 5.80805H17.729L20.505 11.328L22.961 5.80805H25.233L19.201 18.16H16.929Z" fill="#212121"/>
<path d="M28.616 14V3.888H25.736V0.8H35.016V3.888H32.136V14H28.616Z" fill="#FF6682"/>
<path d="M38.3153 14.256C37.5687 14.256 36.8887 14.0693 36.2753 13.696C35.662 13.3173 35.174 12.8 34.8113 12.144C34.4487 11.4827 34.2673 10.7307 34.2673 9.888C34.2673 9.072 34.438 8.33867 34.7793 7.688C35.126 7.032 35.6033 6.512 36.2113 6.128C36.8193 5.744 37.5207 5.552 38.3153 5.552C38.7847 5.552 39.2353 5.62133 39.6673 5.76C40.1047 5.89333 40.486 6.08533 40.8113 6.336V5.808H44.1393V14H40.8113V13.36C40.422 13.6587 40.0193 13.8827 39.6033 14.032C39.1927 14.1813 38.7633 14.256 38.3153 14.256ZM39.3393 11.44C39.638 11.44 39.902 11.3733 40.1313 11.24C40.366 11.1067 40.5473 10.9253 40.6753 10.696C40.8087 10.4613 40.8753 10.1973 40.8753 9.904C40.8753 9.60533 40.8087 9.34133 40.6753 9.112C40.542 8.88267 40.3607 8.70133 40.1313 8.568C39.902 8.43467 39.638 8.368 39.3393 8.368C39.046 8.368 38.782 8.43467 38.5473 8.568C38.3127 8.70133 38.126 8.88533 37.9873 9.12C37.854 9.34933 37.7873 9.61067 37.7873 9.904C37.7873 10.1973 37.854 10.4613 37.9873 10.696C38.1207 10.9253 38.3047 11.1067 38.5393 11.24C38.774 11.3733 39.0407 11.44 39.3393 11.44Z" fill="#FF6682"/>
<path d="M44.9461 14L48.4661 9.68L45.4581 5.808H49.3301L50.4661 7.36L51.6021 5.808H55.4741L52.4661 9.68L55.9861 14H51.9861L50.4661 12.016L48.9461 14H44.9461Z" fill="#FF6682"/>
<path d="M57.0951 14V0.8H62.3111C63.2391 0.8 64.0471 0.965334 64.7351 1.296C65.4231 1.62133 65.9564 2.096 66.3351 2.72C66.7138 3.33867 66.9031 4.09067 66.9031 4.976C66.9031 5.60533 66.8044 6.18133 66.6071 6.704C66.4098 7.22133 66.1218 7.67467 65.7431 8.064C65.3698 8.448 64.9084 8.75733 64.3591 8.992L68.6311 14H64.1671L60.6231 9.424H60.6151V14H57.0951ZM60.6151 6.512H61.1591C61.6071 6.512 61.9804 6.45867 62.2791 6.352C62.5831 6.24533 62.8098 6.08533 62.9591 5.872C63.1138 5.65333 63.1911 5.38667 63.1911 5.072C63.1911 4.58667 63.0178 4.22133 62.6711 3.976C62.3298 3.72533 61.8258 3.6 61.1591 3.6H60.6151V6.512Z" fill="#FF6682"/>
<path d="M73.0723 14.256C72.1657 14.256 71.3497 14.064 70.6243 13.68C69.9043 13.296 69.3337 12.776 68.9123 12.12C68.491 11.4587 68.2803 10.7147 68.2803 9.888C68.2803 9.27467 68.4003 8.70667 68.6403 8.184C68.8803 7.656 69.2137 7.19467 69.6403 6.8C70.067 6.40533 70.5657 6.09867 71.1363 5.88C71.7123 5.66133 72.3363 5.552 73.0083 5.552C73.8617 5.552 74.6083 5.73067 75.2483 6.088C75.8937 6.44 76.3977 6.93333 76.7603 7.568C77.123 8.19733 77.3043 8.93067 77.3043 9.768C77.3043 9.83733 77.3017 9.904 77.2963 9.968C77.2963 10.0267 77.2883 10.16 77.2723 10.368H71.7203C71.7203 10.6293 71.7817 10.856 71.9043 11.048C72.027 11.2347 72.203 11.3787 72.4323 11.48C72.667 11.5813 72.9443 11.632 73.2643 11.632C73.563 11.632 73.819 11.5787 74.0323 11.472C74.251 11.3653 74.5043 11.1733 74.7923 10.896L77.1763 12.08C76.7923 12.7573 76.235 13.2907 75.5043 13.68C74.779 14.064 73.9683 14.256 73.0723 14.256ZM71.8163 8.8H74.0563C74.0243 8.58133 73.9603 8.40267 73.8643 8.264C73.7683 8.12 73.643 8.01333 73.4883 7.944C73.3337 7.87467 73.1443 7.84 72.9203 7.84C72.6857 7.84 72.4857 7.87733 72.3203 7.952C72.1603 8.02667 72.0377 8.136 71.9523 8.28C71.867 8.41867 71.8217 8.592 71.8163 8.8Z" fill="#FF6682"/>
<path d="M79.5836 14V8.336H78.3036V5.808H79.5836V4.384C79.5836 3.50933 79.7249 2.744 80.0076 2.088C80.2956 1.42667 80.7009 0.914667 81.2236 0.552C81.7516 0.184 82.3783 0 83.1036 0C83.5623 0 84.0209 0.0746667 84.4796 0.224C84.9383 0.368 85.3276 0.565334 85.6476 0.816L84.4956 3.136C84.2396 3.008 83.9729 2.944 83.6956 2.944C83.4343 2.944 83.2476 3.01333 83.1356 3.152C83.0289 3.28533 82.9649 3.46933 82.9436 3.704C82.9223 3.93867 82.9116 4.20267 82.9116 4.496V5.808H84.7356V8.336H82.9116V14H79.5836Z" fill="#FF6682"/>
<path d="M90.6933 14.256C89.024 14.256 87.816 13.9493 87.0693 13.336C86.328 12.7227 85.9573 11.7333 85.9573 10.368V5.808H89.2853V9.536C89.2853 10.288 89.3893 10.816 89.5973 11.12C89.8107 11.4187 90.1787 11.568 90.7013 11.568C91.2187 11.568 91.5813 11.4187 91.7893 11.12C91.9973 10.816 92.1013 10.288 92.1013 9.536V5.808H95.4293V10.368C95.4293 11.7333 95.056 12.7227 94.3093 13.336C93.568 13.9493 92.3627 14.256 90.6933 14.256Z" fill="#FF6682"/>
<path d="M97.7206 14V5.808H101.049V6.576C101.427 6.25067 101.854 6 102.329 5.824C102.809 5.64267 103.294 5.552 103.785 5.552C104.409 5.552 104.966 5.69333 105.457 5.976C105.953 6.25867 106.345 6.64267 106.633 7.128C106.921 7.608 107.065 8.15467 107.065 8.768V14H103.737V9.488C103.737 9.07733 103.614 8.74933 103.369 8.504C103.123 8.25333 102.798 8.128 102.393 8.128C102.126 8.128 101.891 8.184 101.689 8.296C101.486 8.408 101.329 8.56533 101.217 8.768C101.105 8.97067 101.049 9.21067 101.049 9.488V14H97.7206Z" fill="#FF6682"/>
<path d="M112.744 14.256C112.019 14.256 111.352 14.072 110.744 13.704C110.136 13.336 109.648 12.824 109.28 12.168C108.917 11.512 108.736 10.7573 108.736 9.904C108.736 9.07733 108.912 8.336 109.264 7.68C109.616 7.024 110.099 6.50667 110.712 6.128C111.331 5.744 112.037 5.552 112.832 5.552C113.301 5.552 113.747 5.62133 114.168 5.76C114.589 5.89333 114.96 6.08533 115.28 6.336V0.240001H118.608V14H115.28V13.36C114.907 13.648 114.504 13.8693 114.072 14.024C113.645 14.1787 113.203 14.256 112.744 14.256ZM113.784 11.44C114.088 11.44 114.357 11.3733 114.592 11.24C114.827 11.1067 115.011 10.9253 115.144 10.696C115.277 10.4667 115.344 10.208 115.344 9.92C115.344 9.62133 115.275 9.35733 115.136 9.128C115.003 8.89333 114.819 8.70933 114.584 8.576C114.355 8.43733 114.093 8.368 113.8 8.368C113.507 8.368 113.243 8.43733 113.008 8.576C112.779 8.70933 112.595 8.89333 112.456 9.128C112.323 9.36267 112.256 9.62933 112.256 9.928C112.256 10.216 112.32 10.4747 112.448 10.704C112.576 10.9333 112.755 11.1147 112.984 11.248C113.219 11.376 113.485 11.44 113.784 11.44Z" fill="#FF6682"/>
<path d="M121.736 14V0.800049H123.832V12.16H128.872V14H121.736Z" fill="#212121"/>
<path d="M134.954 14.256C134.069 14.256 133.269 14.0721 132.554 13.7041C131.845 13.3361 131.282 12.824 130.866 12.168C130.45 11.512 130.242 10.7574 130.242 9.90405C130.242 9.04538 130.45 8.29072 130.866 7.64005C131.282 6.98405 131.845 6.47205 132.554 6.10405C133.263 5.73605 134.063 5.55205 134.954 5.55205C135.839 5.55205 136.637 5.73605 137.346 6.10405C138.061 6.47205 138.623 6.98405 139.034 7.64005C139.45 8.29072 139.658 9.04538 139.658 9.90405C139.658 10.7574 139.45 11.512 139.034 12.168C138.623 12.824 138.061 13.3361 137.346 13.7041C136.637 14.0721 135.839 14.256 134.954 14.256ZM134.954 12.544C135.455 12.544 135.903 12.432 136.298 12.208C136.698 11.9787 137.013 11.6667 137.242 11.272C137.471 10.872 137.586 10.416 137.586 9.90405C137.586 9.38672 137.471 8.93072 137.242 8.53605C137.013 8.13605 136.698 7.82405 136.298 7.60005C135.903 7.37605 135.455 7.26405 134.954 7.26405C134.458 7.26405 134.01 7.37605 133.61 7.60005C133.21 7.82405 132.895 8.13605 132.666 8.53605C132.437 8.93072 132.322 9.38672 132.322 9.90405C132.322 10.416 132.437 10.872 132.666 11.272C132.895 11.6667 133.21 11.9787 133.61 12.208C134.01 12.432 134.458 12.544 134.954 12.544Z" fill="#212121"/>
<path d="M145.441 14.256C144.683 14.256 143.995 14.0694 143.377 13.696C142.763 13.3174 142.275 12.8 141.913 12.144C141.555 11.488 141.377 10.7387 141.377 9.89605C141.377 9.06405 141.55 8.32272 141.897 7.67205C142.249 7.01605 142.731 6.49872 143.345 6.12005C143.958 5.74138 144.657 5.55205 145.441 5.55205C146.081 5.55205 146.67 5.68538 147.209 5.95205C147.747 6.21872 148.174 6.58938 148.489 7.06405V5.80805H150.481V14H148.489V12.688C148.126 13.184 147.681 13.5707 147.153 13.848C146.63 14.12 146.059 14.256 145.441 14.256ZM146.009 12.552C146.505 12.552 146.942 12.44 147.321 12.216C147.699 11.9867 147.998 11.672 148.217 11.272C148.435 10.872 148.545 10.416 148.545 9.90405C148.545 9.38672 148.435 8.93072 148.217 8.53605C147.998 8.13605 147.699 7.82405 147.321 7.60005C146.942 7.37072 146.505 7.25605 146.009 7.25605C145.518 7.25605 145.081 7.37072 144.697 7.60005C144.313 7.82405 144.011 8.13605 143.793 8.53605C143.574 8.93605 143.465 9.39205 143.465 9.90405C143.465 10.416 143.574 10.872 143.793 11.272C144.011 11.672 144.313 11.9867 144.697 12.216C145.081 12.44 145.518 12.552 146.009 12.552Z" fill="#212121"/>
<path d="M153.571 14V5.80805H155.563V6.79205C155.845 6.42938 156.221 6.13338 156.691 5.90405C157.165 5.66938 157.707 5.55205 158.315 5.55205C158.944 5.55205 159.493 5.68805 159.963 5.96005C160.437 6.22672 160.805 6.60538 161.067 7.09605C161.328 7.58672 161.459 8.16805 161.459 8.84005V14H159.467V9.25605C159.467 8.57338 159.296 8.04805 158.955 7.68005C158.619 7.30672 158.152 7.12005 157.555 7.12005C157.144 7.12005 156.789 7.20538 156.491 7.37605C156.192 7.54138 155.963 7.76538 155.803 8.04805C155.643 8.32538 155.563 8.63472 155.563 8.97605V14H153.571Z" fill="#212121"/>
<path d="M166.039 14.256C165.794 14.256 165.57 14.1947 165.367 14.072C165.17 13.9547 165.01 13.7974 164.887 13.6C164.77 13.3974 164.711 13.176 164.711 12.936C164.711 12.6907 164.77 12.4694 164.887 12.272C165.01 12.0747 165.17 11.9174 165.367 11.8C165.57 11.6774 165.794 11.616 166.039 11.616C166.284 11.616 166.506 11.6774 166.703 11.8C166.9 11.9174 167.058 12.0747 167.175 12.272C167.292 12.4694 167.351 12.6907 167.351 12.936C167.351 13.176 167.292 13.3974 167.175 13.6C167.058 13.7974 166.9 13.9547 166.703 14.072C166.506 14.1947 166.284 14.256 166.039 14.256Z" fill="#212121"/>
<path d="M174.598 14.256C173.979 14.256 173.395 14.1467 172.846 13.9281C172.302 13.7041 171.822 13.3947 171.406 13C170.99 12.6054 170.662 12.144 170.422 11.616C170.187 11.088 170.07 10.5174 170.07 9.90405C170.07 9.31205 170.182 8.75472 170.406 8.23205C170.635 7.70405 170.952 7.24005 171.358 6.84005C171.769 6.44005 172.249 6.12538 172.798 5.89605C173.353 5.66672 173.95 5.55205 174.59 5.55205C175.123 5.55205 175.633 5.62938 176.118 5.78405C176.609 5.93872 177.014 6.14138 177.334 6.39205L176.622 7.73605C176.153 7.37872 175.574 7.20005 174.886 7.20005C174.32 7.20005 173.833 7.32538 173.422 7.57605C173.011 7.82138 172.697 8.15205 172.478 8.56805C172.259 8.97872 172.15 9.42405 172.15 9.90405C172.15 10.4107 172.265 10.8694 172.494 11.28C172.723 11.6854 173.046 12.008 173.462 12.248C173.878 12.488 174.358 12.608 174.902 12.608C175.238 12.608 175.553 12.56 175.846 12.464C176.145 12.368 176.401 12.2374 176.614 12.072L177.334 13.416C177.009 13.6614 176.606 13.8614 176.126 14.016C175.646 14.176 175.137 14.256 174.598 14.256Z" fill="#212121"/>
<path d="M183.532 14.256C182.647 14.256 181.847 14.0721 181.132 13.7041C180.423 13.3361 179.86 12.824 179.444 12.168C179.028 11.512 178.82 10.7574 178.82 9.90405C178.82 9.04538 179.028 8.29072 179.444 7.64005C179.86 6.98405 180.423 6.47205 181.132 6.10405C181.842 5.73605 182.642 5.55205 183.532 5.55205C184.418 5.55205 185.215 5.73605 185.924 6.10405C186.639 6.47205 187.202 6.98405 187.612 7.64005C188.028 8.29072 188.236 9.04538 188.236 9.90405C188.236 10.7574 188.028 11.512 187.612 12.168C187.202 12.824 186.639 13.3361 185.924 13.7041C185.215 14.0721 184.418 14.256 183.532 14.256ZM183.532 12.544C184.034 12.544 184.482 12.432 184.876 12.208C185.276 11.9787 185.591 11.6667 185.82 11.272C186.05 10.872 186.164 10.416 186.164 9.90405C186.164 9.38672 186.05 8.93072 185.82 8.53605C185.591 8.13605 185.276 7.82405 184.876 7.60005C184.482 7.37605 184.034 7.26405 183.532 7.26405C183.036 7.26405 182.588 7.37605 182.188 7.60005C181.788 7.82405 181.474 8.13605 181.244 8.53605C181.015 8.93072 180.9 9.38672 180.9 9.90405C180.9 10.416 181.015 10.872 181.244 11.272C181.474 11.6667 181.788 11.9787 182.188 12.208C182.588 12.432 183.036 12.544 183.532 12.544Z" fill="#212121"/>
<path d="M190.618 14V5.80805H192.61V6.79205C192.988 6.37072 193.386 6.05872 193.802 5.85605C194.223 5.65338 194.684 5.55205 195.186 5.55205C195.831 5.55205 196.404 5.69872 196.906 5.99205C197.412 6.28538 197.77 6.68005 197.978 7.17605C198.346 6.65338 198.764 6.25338 199.234 5.97605C199.703 5.69338 200.247 5.55205 200.866 5.55205C201.452 5.55205 201.972 5.67472 202.426 5.92005C202.884 6.16005 203.244 6.50672 203.506 6.96005C203.772 7.40805 203.906 7.94938 203.906 8.58405V14H201.914V9.12805C201.914 8.52005 201.754 8.04005 201.434 7.68805C201.119 7.33072 200.695 7.15205 200.162 7.15205C199.799 7.15205 199.474 7.22938 199.186 7.38405C198.898 7.53872 198.671 7.74405 198.506 8.00005C198.34 8.25605 198.258 8.53072 198.258 8.82405V14H196.266V9.04805C196.266 8.47205 196.111 8.01338 195.802 7.67205C195.492 7.32538 195.071 7.15205 194.538 7.15205C194.17 7.15205 193.839 7.22938 193.546 7.38405C193.258 7.53872 193.028 7.74405 192.858 8.00005C192.692 8.25072 192.61 8.52272 192.61 8.81605V14H190.618Z" fill="#212121"/>
</svg>
