<svg width="34" height="34" viewBox="0 0 34 34" fill="none" xmlns="http://www.w3.org/2000/svg">
<circle cx="17" cy="17" r="17" fill="#EEEFF5"/>
<path d="M8 20.7292C8 21.4368 8.45789 21.9278 9.11997 21.9278H13.7669C14.2372 21.9278 14.5775 21.5307 14.5775 20.9819C14.5775 20.426 14.2372 20.0289 13.7669 20.0289H10.3884V19.9134L13.5751 15.0397C14.2186 14.0939 14.3919 13.7184 14.3919 13.2563C14.3919 12.5271 13.9711 12.0722 13.3029 12.0722H8.99003C8.50739 12.0722 8.17326 12.4549 8.17326 13.0253C8.17326 13.5884 8.5012 13.9711 8.99003 13.9711H12.0591V14.0866L8.8044 18.9892C8.15469 19.9278 8 20.2671 8 20.7292Z" fill="#727AAC"/>
<path d="M16.8175 22C17.4672 22 17.8322 21.5379 17.8322 20.7148V13.2852C17.8322 12.4693 17.461 12 16.8051 12C16.1492 12 15.7841 12.4621 15.7841 13.2852V20.7148C15.7841 21.5307 16.1616 22 16.8175 22Z" fill="#727AAC"/>
<path d="M20.4868 22C21.1427 22 21.5139 21.5307 21.5139 20.7148V18.7798H22.8752C24.812 18.7798 26 17.574 26 15.4152C26 13.3863 24.8305 12.0722 22.9804 12.0722H20.8085C19.8432 12.0722 19.472 12.5271 19.472 13.704V20.7148C19.472 21.5379 19.8371 22 20.4868 22ZM21.5201 17.0036V13.9134H22.6772C23.5125 13.9134 23.9766 14.4765 23.9766 15.4585C23.9766 16.5993 23.5064 17.0036 22.4483 17.0036H21.5201Z" fill="#727AAC"/>
</svg>
